<svg id="Multicolor" xmlns="http://www.w3.org/2000/svg" viewBox="0 0 100 112"><defs><style>.cls-1{fill:#e8f4fa;}.cls-2{fill:#191816;opacity:0.15;}.cls-3,.cls-8{fill:#ffe500;}.cls-4{fill:#656769;}.cls-14,.cls-15,.cls-4,.cls-5,.cls-7,.cls-8,.cls-9{stroke:#191816;}.cls-15,.cls-4,.cls-5,.cls-7{stroke-linecap:round;}.cls-14,.cls-15,.cls-4,.cls-5,.cls-7{stroke-linejoin:round;}.cls-5{fill:#f0f0f0;}.cls-6{fill:#fff48c;}.cls-14,.cls-7{fill:none;}.cls-8,.cls-9{stroke-miterlimit:10;}.cls-10,.cls-9{fill:#ffcebf;}.cls-11{fill:#ffb59e;}.cls-12{fill:#009fd9;}.cls-13{fill:#00b8f0;}.cls-15{fill:#fff;}</style></defs><title>29- hand-lightbulb-idea</title><g id="New_Symbol_53-4" data-name="New Symbol 53"><circle class="cls-1" cx="50" cy="56" r="40"/></g><ellipse class="cls-2" cx="49.2" cy="87.25" rx="15" ry="1.5"/><path class="cls-3" d="M56.57,39.2a7.37,7.37,0,1,0-12.81,5,7.75,7.75,0,0,1,2,5.23h6.8a7.75,7.75,0,0,1,2-5.23A7.32,7.32,0,0,0,56.57,39.2Z"/><path class="cls-4" d="M52.6,51.67a3.4,3.4,0,1,1-6.8,0Z"/><rect class="cls-5" x="45.8" y="49.4" width="6.8" height="2.27"/><path class="cls-6" d="M49.2,34.66a7.37,7.37,0,0,1,7.23,6,7.37,7.37,0,1,0-14.46,0A7.37,7.37,0,0,1,49.2,34.66Z"/><path class="cls-7" d="M56.57,39.2a7.37,7.37,0,1,0-12.81,5,7.75,7.75,0,0,1,2,5.23h6.8a7.75,7.75,0,0,1,2-5.23A7.32,7.32,0,0,0,56.57,39.2Z"/><path class="cls-8" d="M61.11,39.7a1.14,1.14,0,1,1,0-2.27h2.26a1.14,1.14,0,1,1,0,2.27Z"/><path class="cls-8" d="M58.42,31a1.13,1.13,0,0,1-1.6-1.61l1.6-1.6a1.15,1.15,0,0,1,1.61,0,1.13,1.13,0,0,1,0,1.6Z"/><path class="cls-8" d="M37.29,39.7a1.14,1.14,0,1,0,0-2.27H35a1.14,1.14,0,1,0,0,2.27Z"/><path class="cls-8" d="M40,31a1.13,1.13,0,1,0,1.6-1.61L40,27.74a1.15,1.15,0,0,0-1.61,0,1.13,1.13,0,0,0,0,1.6Z"/><path class="cls-8" d="M50.33,26.66a1.13,1.13,0,1,1-2.26,0V24.39a1.13,1.13,0,1,1,2.26,0Z"/><path class="cls-9" d="M28.38,58.52A19.62,19.62,0,0,1,31.54,47a1.6,1.6,0,0,1,2.67,1.76,16.65,16.65,0,0,0-2.64,9.46,1.6,1.6,0,0,1-3.19.33Z"/><path class="cls-10" d="M41.22,71a5.89,5.89,0,0,1,.14-3.14c2.12-6.36-.11-10.84-1.25-14a1.6,1.6,0,0,0-2-1,1.62,1.62,0,0,0-1,2c3.93,12.45-7,7.33-7.09-3.12,0-1.31,0-5.81,0-6.16a1.6,1.6,0,0,0-3.2,0c0,.36,0,4.82,0,6.09C26.63,59.71,32,65.05,32,71Z"/><path class="cls-11" d="M32,71h9.2a5.89,5.89,0,0,1,.14-3.14c.18-.53.32-1,.44-1.55a17.33,17.33,0,0,1-4,.48,17,17,0,0,1-7.21-1.6A15.79,15.79,0,0,1,32,71Z"/><rect class="cls-12" x="33.82" y="69.95" width="5.6" height="12.4" rx="0.8" ry="0.8" transform="translate(-39.53 112.78) rotate(-90)"/><path class="cls-13" d="M31.22,73.35a.8.8,0,0,0-.8.8v4a.8.8,0,0,0,.8.8h1.2v-5.6Z"/><rect class="cls-14" x="33.82" y="69.95" width="5.6" height="12.4" rx="0.8" ry="0.8" transform="translate(-39.53 112.78) rotate(-90)"/><path class="cls-15" d="M36.22,66.75h1.6a0,0,0,0,1,0,0v10.8a0,0,0,0,1,0,0h-1.6a.8.8,0,0,1-.8-.8v-9.2A.8.8,0,0,1,36.22,66.75Z" transform="translate(108.78 35.53) rotate(90)"/><path class="cls-7" d="M41.22,71a5.89,5.89,0,0,1,.14-3.14c2.12-6.36-.11-10.84-1.25-14a1.6,1.6,0,0,0-2-1,1.62,1.62,0,0,0-1,2c3.93,12.45-7,7.33-7.09-3.12,0-1.31,0-5.81,0-6.16a1.6,1.6,0,0,0-3.2,0c0,.36,0,4.82,0,6.09C26.63,59.71,32,65.05,32,71Z"/><path class="cls-9" d="M70,58.52A19.62,19.62,0,0,0,66.86,47a1.6,1.6,0,0,0-2.67,1.76,16.65,16.65,0,0,1,2.64,9.46,1.6,1.6,0,0,0,3.19.33Z"/><path class="cls-10" d="M57.18,71A5.89,5.89,0,0,0,57,67.81c-2.12-6.36.11-10.84,1.25-14a1.6,1.6,0,0,1,2.05-1,1.62,1.62,0,0,1,1,2c-3.93,12.45,7,7.33,7.09-3.12,0-1.31,0-5.81,0-6.16a1.6,1.6,0,0,1,3.2,0c0,.36,0,4.82,0,6.09.18,8-5.16,13.31-5.21,19.21Z"/><path class="cls-11" d="M66.38,71h-9.2A5.89,5.89,0,0,0,57,67.81c-.18-.53-.32-1-.44-1.55a17.33,17.33,0,0,0,4,.48,17,17,0,0,0,7.21-1.6A15.79,15.79,0,0,0,66.38,71Z"/><rect class="cls-12" x="58.98" y="69.95" width="5.6" height="12.4" rx="0.8" ry="0.8" transform="translate(-14.38 137.93) rotate(-90)"/><path class="cls-13" d="M67.18,73.35a.8.8,0,0,1,.8.8v4a.8.8,0,0,1-.8.8H66v-5.6Z"/><rect class="cls-14" x="58.98" y="69.95" width="5.6" height="12.4" rx="0.8" ry="0.8" transform="translate(-14.38 137.93) rotate(-90)"/><path class="cls-15" d="M61.38,66.75H63a0,0,0,0,1,0,0v10.8a0,0,0,0,1,0,0h-1.6a.8.8,0,0,1-.8-.8v-9.2A.8.8,0,0,1,61.38,66.75Z" transform="translate(133.93 10.38) rotate(90)"/><path class="cls-7" d="M57.18,71A5.89,5.89,0,0,0,57,67.81c-2.12-6.36.11-10.84,1.25-14a1.6,1.6,0,0,1,2.05-1,1.62,1.62,0,0,1,1,2c-3.93,12.45,7,7.33,7.09-3.12,0-1.31,0-5.81,0-6.16a1.6,1.6,0,0,1,3.2,0c0,.36,0,4.82,0,6.09.18,8-5.16,13.31-5.21,19.21Z"/></svg>