<svg xmlns="http://www.w3.org/2000/svg" viewBox="0 0 134 122.283">
  <defs>
    <style>
      .cls-1 {
        fill: #e8f4fa;
      }

      .cls-15, .cls-2, .cls-8 {
        fill: #fff;
      }

      .cls-18, .cls-3 {
        fill: none;
      }

      .cls-10, .cls-11, .cls-15, .cls-18, .cls-19, .cls-22, .cls-23, .cls-3, .cls-8, .cls-9 {
        stroke: #191816;
        stroke-linejoin: round;
      }

      .cls-10, .cls-11, .cls-23, .cls-3, .cls-8, .cls-9 {
        stroke-linecap: round;
      }

      .cls-4 {
        fill: #f7e5c6;
      }

      .cls-5 {
        fill: #fff5e3;
      }

      .cls-6 {
        fill: #00b8f0;
      }

      .cls-7 {
        fill: #4acfff;
      }

      .cls-9 {
        fill: #ff6242;
      }

      .cls-10, .cls-24 {
        fill: #724f3d;
      }

      .cls-11, .cls-17 {
        fill: #ffda8f;
      }

      .cls-12 {
        fill: #ffbe3d;
      }

      .cls-13, .cls-23 {
        fill: #ff6196;
      }

      .cls-14 {
        fill: #ff87af;
      }

      .cls-16 {
        fill: #191816;
        opacity: 0.15;
      }

      .cls-19, .cls-20 {
        fill: #656769;
      }

      .cls-21 {
        fill: #525252;
      }

      .cls-22 {
        fill: #bf8256;
      }

      .cls-25 {
        fill: #a86c4d;
      }
    </style>
  </defs>
  <g id="_19-_teacher-female-asian-1" data-name="19- teacher-female-asian-1" transform="translate(-5.99 -16.003)">
    <g id="Background" transform="translate(6.49 16.003)">
      <g id="New_Symbol_10" data-name="New Symbol 10">
        <path id="Path_1659" data-name="Path 1659" class="cls-1" d="M132.3,77.148A61.149,61.149,0,1,0,15.443,102.372h111.4A60.92,60.92,0,0,0,132.3,77.148Z" transform="translate(-4.635 -16.003)"/>
        <path id="Path_1660" data-name="Path 1660" class="cls-2" d="M13.56,72.5a61.149,61.149,0,0,0,111.4,0Z" transform="translate(-2.752 13.869)"/>
        <line id="Line_463" data-name="Line 463" class="cls-3" x2="119.241" transform="translate(6.879 86.369)"/>
        <line id="Line_464" data-name="Line 464" class="cls-3" x2="3.822" transform="translate(0 86.369)"/>
        <line id="Line_465" data-name="Line 465" class="cls-3" x2="3.822" transform="translate(129.178 86.369)"/>
      </g>
    </g>
    <g id="Scene" transform="translate(35.001 26.501)">
      <path id="Path_1661" data-name="Path 1661" class="cls-4" d="M51.529,55A1.529,1.529,0,0,0,50,56.529V81.753H95.862V56.529A1.529,1.529,0,0,0,94.333,55Z" transform="translate(-11.996 -5.882)"/>
      <path id="Path_1662" data-name="Path 1662" class="cls-5" d="M51.529,55A1.529,1.529,0,0,0,50,56.529v1.529H95.862V56.529A1.529,1.529,0,0,0,94.333,55Z" transform="translate(-11.996 -5.882)"/>
      <path id="Path_1663" data-name="Path 1663" class="cls-3" d="M51.529,55A1.529,1.529,0,0,0,50,56.529V81.753H95.862V56.529A1.529,1.529,0,0,0,94.333,55Z" transform="translate(-11.996 -5.882)"/>
      <path id="Path_1664" data-name="Path 1664" class="cls-4" d="M77.345,87.648H59V53.022a9.172,9.172,0,0,1,18.345,0Z" transform="translate(-7.237 -11.777)"/>
      <path id="Path_1665" data-name="Path 1665" class="cls-5" d="M68.172,43.83A9.172,9.172,0,0,0,59,53v3.822a9.172,9.172,0,1,1,18.345,0V53A9.172,9.172,0,0,0,68.172,43.83Z" transform="translate(-7.237 -11.788)"/>
      <path id="Path_1666" data-name="Path 1666" class="cls-3" d="M77.345,87.648H59V53.022a9.172,9.172,0,0,1,18.345,0Z" transform="translate(-7.237 -11.777)"/>
      <rect id="Rectangle_929" data-name="Rectangle 929" class="cls-6" width="6.115" height="6.115" rx="1" transform="translate(41.811 53.704)"/>
      <path id="Path_1667" data-name="Path 1667" class="cls-7" d="M57.076,58H54.019a1.529,1.529,0,0,0-1.529,1.529v3.057a1.529,1.529,0,0,0,.306.9l5.2-5.182A1.529,1.529,0,0,0,57.076,58Z" transform="translate(-10.679 -4.296)"/>
      <rect id="Rectangle_930" data-name="Rectangle 930" class="cls-3" width="6.115" height="6.115" rx="1" transform="translate(41.811 53.704)"/>
      <circle id="Ellipse_142" data-name="Ellipse 142" class="cls-8" cx="5.351" cy="5.351" r="5.351" transform="translate(55.57 36.124)"/>
      <path id="Path_1668" data-name="Path 1668" class="cls-3" d="M65,48.3v2.767L66.834,52.9" transform="translate(-4.065 -9.424)"/>
      <rect id="Rectangle_931" data-name="Rectangle 931" class="cls-6" width="18.345" height="5.381" transform="translate(51.748 52.176)"/>
      <path id="Path_1669" data-name="Path 1669" class="cls-7" d="M70.578,57H58.99v5.381h6.191Z" transform="translate(-7.242 -4.824)"/>
      <rect id="Rectangle_932" data-name="Rectangle 932" class="cls-3" width="18.345" height="5.381" transform="translate(51.748 52.176)"/>
      <rect id="Rectangle_933" data-name="Rectangle 933" class="cls-3" width="7.644" height="5.381" transform="translate(57.098 52.176)"/>
      <line id="Line_466" data-name="Line 466" class="cls-3" y1="13.04" transform="translate(60.92 19.002)"/>
      <path id="Path_1670" data-name="Path 1670" class="cls-9" d="M65,42.653l7.353-3.684L65,35.3Z" transform="translate(-4.065 -16.298)"/>
      <rect id="Rectangle_934" data-name="Rectangle 934" class="cls-6" width="6.115" height="6.115" rx="1" transform="translate(41.811 65.17)"/>
      <path id="Path_1671" data-name="Path 1671" class="cls-7" d="M57.076,65.5H54.019a1.529,1.529,0,0,0-1.529,1.529v3.057a1.529,1.529,0,0,0,.306.9l5.2-5.182A1.529,1.529,0,0,0,57.076,65.5Z" transform="translate(-10.679 -0.33)"/>
      <rect id="Rectangle_935" data-name="Rectangle 935" class="cls-3" width="6.115" height="6.115" rx="1" transform="translate(41.811 65.17)"/>
      <rect id="Rectangle_936" data-name="Rectangle 936" class="cls-6" width="6.115" height="6.115" rx="1" transform="translate(73.914 53.704)"/>
      <path id="Path_1672" data-name="Path 1672" class="cls-7" d="M78.076,58H75.019a1.529,1.529,0,0,0-1.529,1.529v3.057a1.529,1.529,0,0,0,.306.9l5.2-5.182A1.529,1.529,0,0,0,78.076,58Z" transform="translate(0.424 -4.296)"/>
      <rect id="Rectangle_937" data-name="Rectangle 937" class="cls-3" width="6.115" height="6.115" rx="1" transform="translate(73.914 53.704)"/>
      <rect id="Rectangle_938" data-name="Rectangle 938" class="cls-6" width="6.115" height="6.115" rx="1" transform="translate(73.914 65.17)"/>
      <path id="Path_1673" data-name="Path 1673" class="cls-7" d="M78.076,65.5H75.019a1.529,1.529,0,0,0-1.529,1.529v3.057a1.529,1.529,0,0,0,.306.9l5.2-5.182A1.529,1.529,0,0,0,78.076,65.5Z" transform="translate(0.424 -0.33)"/>
      <rect id="Rectangle_939" data-name="Rectangle 939" class="cls-3" width="6.115" height="6.115" rx="1" transform="translate(73.914 65.17)"/>
      <path id="Path_1674" data-name="Path 1674" class="cls-6" d="M66.586,64.68A4.586,4.586,0,0,0,62,69.266v7.368h9.172V69.281a4.586,4.586,0,0,0-4.586-4.6Z" transform="translate(-5.651 -0.764)"/>
      <path id="Path_1675" data-name="Path 1675" class="cls-7" d="M70.194,66.423A4.593,4.593,0,0,0,62,69.266V74.6Z" transform="translate(-5.651 -0.764)"/>
      <path id="Path_1676" data-name="Path 1676" class="cls-3" d="M66.586,64.68A4.586,4.586,0,0,0,62,69.266v7.368h9.172V69.281a4.586,4.586,0,0,0-4.586-4.6Z" transform="translate(-5.651 -0.764)"/>
      <line id="Line_467" data-name="Line 467" class="cls-3" y2="4.586" transform="translate(27.288 55.233)"/>
      <path id="Path_1677" data-name="Path 1677" class="cls-10" d="M55.039,49.18c-1.3-.581-1.941-2.752-2.079-4.25V32.7H28.347V44.93c-.122,1.529-.764,3.669-2.064,4.25a.856.856,0,0,0-.52,1.055,2.431,2.431,0,0,0,2.461,1.819H53.1a2.431,2.431,0,0,0,2.461-1.819A.856.856,0,0,0,55.039,49.18Z" transform="translate(-24.831 -17.673)"/>
      <path id="Path_1678" data-name="Path 1678" class="cls-11" d="M52.05,39.229a2.156,2.156,0,0,0-1.758-2.094V35.728a10.548,10.548,0,0,0-21.1,0v1.406a2.156,2.156,0,0,0,.229,4.265,10.548,10.548,0,0,0,20.653,0,2.171,2.171,0,0,0,1.972-2.171Z" transform="translate(-23.921 -21.649)"/>
      <circle id="Ellipse_143" data-name="Ellipse 143" class="cls-12" cx="1.315" cy="1.315" r="1.315" transform="translate(8.806 17.596)"/>
      <circle id="Ellipse_144" data-name="Ellipse 144" class="cls-12" cx="1.315" cy="1.315" r="1.315" transform="translate(20.225 17.596)"/>
      <path id="Path_1679" data-name="Path 1679" class="cls-3" d="M39.33,33.366a1.529,1.529,0,0,0-2.11,0" transform="translate(-18.753 -17.544)"/>
      <path id="Path_1680" data-name="Path 1680" class="cls-3" d="M32.39,33.366a1.529,1.529,0,0,1,2.11,0" transform="translate(-21.307 -17.544)"/>
      <path id="Path_1681" data-name="Path 1681" class="cls-3" d="M39.044,37.25a4.433,4.433,0,0,1-5.274,0" transform="translate(52.237 60.103) rotate(180)"/>
      <path id="Path_1682" data-name="Path 1682" class="cls-13" d="M56.785,58.889A15.425,15.425,0,0,0,40.962,43.6,15.44,15.44,0,0,0,25.14,58.889V77.845h19.2A12.459,12.459,0,0,0,56.785,65.2Z" transform="translate(-25.14 -11.911)"/>
      <path id="Path_1683" data-name="Path 1683" class="cls-14" d="M56.785,58.889A15.425,15.425,0,0,0,40.962,43.6,15.44,15.44,0,0,0,25.14,58.889v7.032A15.41,15.41,0,0,1,40.962,50.634,15.394,15.394,0,0,1,56.785,65.921Z" transform="translate(-25.14 -11.911)"/>
      <path id="Path_1684" data-name="Path 1684" class="cls-3" d="M56.785,58.889A15.425,15.425,0,0,0,40.962,43.6,15.44,15.44,0,0,0,25.14,58.889V77.845h19.2A12.459,12.459,0,0,0,56.785,65.2Z" transform="translate(-25.14 -11.911)"/>
      <path id="Path_1685" data-name="Path 1685" class="cls-15" d="M28.79,47.147,39.033,62.923,49.29,47.147A16.48,16.48,0,0,0,28.79,47.147Z" transform="translate(-23.21 -11.925)"/>
      <ellipse id="Ellipse_145" data-name="Ellipse 145" class="cls-16" cx="14.064" cy="2.645" rx="14.064" ry="2.645" transform="translate(1.758 95.806)"/>
      <path id="Path_1686" data-name="Path 1686" class="cls-17" d="M30.67,74.05l.81,19.339H44.612l.81-19.339Z" transform="translate(-22.216 4.191)"/>
      <path id="Path_1687" data-name="Path 1687" class="cls-12" d="M45.193,79.324l.229-5.274H30.67l.229,5.274Z" transform="translate(-22.216 4.191)"/>
      <path id="Path_1688" data-name="Path 1688" class="cls-18" d="M30.67,74.05l.81,19.339H44.612l.81-19.339Z" transform="translate(-22.216 4.191)"/>
      <path id="Path_1689" data-name="Path 1689" class="cls-19" d="M44.7,88.524a1.758,1.758,0,0,0,1.529-2.629,5.259,5.259,0,0,0-4.586-2.645h-.887a5.274,5.274,0,0,0-5.274,5.274Z" transform="translate(-19.673 9.055)"/>
      <path id="Path_1690" data-name="Path 1690" class="cls-19" d="M39.3,88.524a5.259,5.259,0,0,0-5.335-5.274H33.1a5.259,5.259,0,0,0-4.586,2.645,1.758,1.758,0,0,0,1.529,2.629Z" transform="translate(-23.48 9.055)"/>
      <line id="Line_468" data-name="Line 468" class="cls-3" y2="19.339" transform="translate(15.822 78.241)"/>
      <path id="Path_1691" data-name="Path 1691" class="cls-11" d="M31.285,69.057a3.057,3.057,0,1,1-6.115,0V66h6.115Z" transform="translate(-25.124 -0.066)"/>
      <path id="Path_1692" data-name="Path 1692" class="cls-20" d="M29.16,64.85l.933,12.459a1.758,1.758,0,0,0,1.758,1.62H45.839a1.758,1.758,0,0,0,1.758-1.62l.933-12.444Z" transform="translate(-23.014 -0.674)"/>
      <path id="Path_1693" data-name="Path 1693" class="cls-21" d="M48.193,69.237l.336-4.387H29.16l.336,4.387Z" transform="translate(-23.014 -0.674)"/>
      <path id="Path_1694" data-name="Path 1694" class="cls-18" d="M29.16,64.85l.933,12.459a1.758,1.758,0,0,0,1.758,1.62H45.839a1.758,1.758,0,0,0,1.758-1.62l.933-12.444Z" transform="translate(-23.014 -0.674)"/>
      <path id="Path_1695" data-name="Path 1695" class="cls-3" d="M29.9,72.151V61.358c0-3.486-2.125-3.516-2.125-6.818" transform="translate(-23.744 -6.125)"/>
      <path id="Path_1696" data-name="Path 1696" class="cls-15" d="M30.615,53.247H47.431a1.758,1.758,0,0,0,1.7-2.2L48.012,46.23a16.541,16.541,0,0,0-17.993,0L28.9,51.046a1.7,1.7,0,0,0,.306,1.529,1.743,1.743,0,0,0,1.406.673Z" transform="translate(-23.185 -11.925)"/>
      <path id="Path_1697" data-name="Path 1697" class="cls-11" d="M31.77,44.579l5.687,11.3,5.7-11.3A16.571,16.571,0,0,0,31.77,44.579Z" transform="translate(-21.634 -11.925)"/>
      <line id="Line_469" data-name="Line 469" class="cls-3" y2="13.178" transform="translate(15.822 50.999)"/>
      <path id="Path_1698" data-name="Path 1698" class="cls-22" d="M47.682,71.361a1.758,1.758,0,0,1-1.33,2.094l-8.958,2a1.758,1.758,0,0,1-2.094-1.33L32.135,60a1.743,1.743,0,0,1,.229-1.315,1.789,1.789,0,0,1,1.1-.78l8.958-2a1.743,1.743,0,0,1,2.094,1.33Z" transform="translate(-21.464 -5.427)"/>
      <path id="Path_1699" data-name="Path 1699" class="cls-23" d="M45.167,57.73a6.436,6.436,0,0,1-6.3,6.528H35.49v6.115h3.379A12.459,12.459,0,0,0,51.312,57.73" transform="translate(-19.668 -4.438)"/>
      <path id="Path_1700" data-name="Path 1700" class="cls-11" d="M34.537,68.115a3.057,3.057,0,0,1,0-6.115h3.057v6.115Z" transform="translate(-21.788 -2.181)"/>
      <path id="Path_1701" data-name="Path 1701" class="cls-24" d="M39.72,22.87A12.872,12.872,0,0,0,27.49,35.7V58.918a.887.887,0,0,0,1.024.871,3.577,3.577,0,0,0,3.379-3.409V42.8a7.644,7.644,0,0,1,2.935-6.115A12.23,12.23,0,0,0,39.8,29.046a12.948,12.948,0,0,0,12.23,8.882V35.7A12.857,12.857,0,0,0,39.72,22.87Z" transform="translate(-23.897 -22.87)"/>
      <path id="Path_1702" data-name="Path 1702" class="cls-25" d="M39.72,22.87A12.872,12.872,0,0,0,27.49,35.7V39.3A12.857,12.857,0,0,1,39.8,26.493,12.826,12.826,0,0,1,52.026,38h0V35.7A12.857,12.857,0,0,0,39.72,22.87Z" transform="translate(-23.897 -22.87)"/>
      <path id="Path_1703" data-name="Path 1703" class="cls-3" d="M39.72,22.87A12.872,12.872,0,0,0,27.49,35.7V58.918a.887.887,0,0,0,1.024.871,3.577,3.577,0,0,0,3.379-3.409V42.8a7.644,7.644,0,0,1,2.935-6.115A12.23,12.23,0,0,0,39.8,29.046a12.948,12.948,0,0,0,12.23,8.882V35.7A12.857,12.857,0,0,0,39.72,22.87Z" transform="translate(-23.897 -22.87)"/>
    </g>
  </g>
</svg>
