<svg xmlns="http://www.w3.org/2000/svg" viewBox="-23116 12677 26.488 23.541">
  <defs>
    <style>
      .cls-1 {
        fill: #fb8f00;
      }
    </style>
  </defs>
  <path id="edit" class="cls-1" d="M18.515,3.922,22.663,8.07a.45.45,0,0,1,0,.635L12.619,18.748l-4.268.474a.894.894,0,0,1-.989-.989l.474-4.268L17.88,3.922A.45.45,0,0,1,18.515,3.922Zm7.45-1.053L23.72.624a1.8,1.8,0,0,0-2.539,0L19.554,2.252a.45.45,0,0,0,0,.635L23.7,7.035a.45.45,0,0,0,.635,0l1.628-1.628a1.8,1.8,0,0,0,0-2.539ZM17.659,16.016V20.7H2.943V5.982H13.511a.565.565,0,0,0,.391-.161l1.84-1.84a.552.552,0,0,0-.391-.943H2.207A2.208,2.208,0,0,0,0,5.246V21.434a2.208,2.208,0,0,0,2.207,2.207H18.4A2.208,2.208,0,0,0,20.6,21.434V14.177a.553.553,0,0,0-.943-.391l-1.84,1.84A.565.565,0,0,0,17.659,16.016Z" transform="translate(-23116 12676.9)"/>
</svg>
