<svg xmlns="http://www.w3.org/2000/svg" viewBox="-9425 -2693 30 30">
  <defs>
    <style>
      .cls-1 {
        fill: #76b82b;
      }
    </style>
  </defs>
  <path id="plus-circle" class="cls-1" d="M23,8A15,15,0,1,0,38,23,15,15,0,0,0,23,8Zm8.71,16.694a.728.728,0,0,1-.726.726H25.419v5.565a.728.728,0,0,1-.726.726H21.306a.728.728,0,0,1-.726-.726V25.419H15.016a.728.728,0,0,1-.726-.726V21.306a.728.728,0,0,1,.726-.726h5.565V15.016a.728.728,0,0,1,.726-.726h3.387a.728.728,0,0,1,.726.726v5.565h5.565a.728.728,0,0,1,.726.726Z" transform="translate(-9433 -2701)"/>
</svg>
