<svg id="Multicolor" xmlns="http://www.w3.org/2000/svg" viewBox="0 0 100 112"><defs><style>.cls-1,.cls-5{fill:#fff;}.cls-2{fill:#e8f4fa;}.cls-3,.cls-4{fill:none;}.cls-10,.cls-15,.cls-16,.cls-17,.cls-3,.cls-5,.cls-6,.cls-9{stroke:#191816;}.cls-10,.cls-15,.cls-3,.cls-4,.cls-5,.cls-6,.cls-9{stroke-linecap:round;}.cls-10,.cls-15,.cls-17,.cls-3,.cls-5,.cls-6,.cls-9{stroke-linejoin:round;}.cls-4{stroke:#c0dceb;}.cls-16,.cls-4{stroke-miterlimit:10;}.cls-6{fill:#ff6242;}.cls-7{fill:#e0e0e0;}.cls-8{fill:#87898c;}.cls-13,.cls-9{fill:#f7e5c6;}.cls-10{fill:#dea47a;}.cls-11{fill:#f0f0f0;}.cls-12,.cls-16,.cls-17{fill:#bdbec0;}.cls-14{fill:#f0d5a8;}.cls-15{fill:#fff5e3;}</style></defs><title>01- factory</title><g id="Background"><g id="New_Symbol_31" data-name="New Symbol 31"><path class="cls-1" d="M49.94,96A39.93,39.93,0,0,0,84.55,76H15.34A39.93,39.93,0,0,0,49.94,96Z"/><path class="cls-1" d="M13.51,72.5A36.28,36.28,0,0,0,15.34,76H84.55a38.67,38.67,0,0,0,1.83-3.5Z"/><path class="cls-2" d="M90,56A40,40,0,1,0,13.57,72.5H86.44A39.7,39.7,0,0,0,90,56Z"/><line class="cls-3" x1="11.01" y1="72.5" x2="89.01" y2="72.5"/><line class="cls-3" x1="6.51" y1="72.5" x2="9.01" y2="72.5"/><line class="cls-3" x1="91.01" y1="72.5" x2="93.51" y2="72.5"/><line class="cls-4" x1="64.01" y1="83" x2="71.17" y2="83"/><line class="cls-4" x1="59.83" y1="83" x2="61.62" y2="83"/><line class="cls-4" x1="56.85" y1="83" x2="57.45" y2="83"/><line class="cls-4" x1="34.17" y1="79.5" x2="41.32" y2="79.5"/><line class="cls-4" x1="29.99" y1="79.5" x2="31.78" y2="79.5"/><line class="cls-4" x1="27.01" y1="79.5" x2="27.61" y2="79.5"/><line class="cls-4" x1="45.35" y1="90.5" x2="52.51" y2="90.5"/><line class="cls-4" x1="41.18" y1="90.5" x2="42.97" y2="90.5"/><line class="cls-4" x1="38.2" y1="90.5" x2="38.79" y2="90.5"/></g></g><g id="Scene"><path class="cls-5" d="M42.71,31h2.11a1.39,1.39,0,0,1,1.38,1.36l.67,43.49H40.66l.67-43.49A1.38,1.38,0,0,1,42.71,31Z"/><polygon class="cls-6" points="41.18 42.05 46.35 42.05 46.27 37.22 41.25 37.22 41.18 42.05"/><polygon class="cls-6" points="41.01 53.09 46.52 53.09 46.45 48.26 41.08 48.26 41.01 53.09"/><rect class="cls-7" x="23.41" y="51.02" width="42.78" height="24.84" transform="translate(89.6 126.89) rotate(180)"/><rect class="cls-8" x="23.41" y="60.68" width="42.78" height="15.18" transform="translate(89.6 136.55) rotate(180)"/><rect class="cls-3" x="23.41" y="51.02" width="42.78" height="24.84" transform="translate(89.6 126.89) rotate(180)"/><path class="cls-9" d="M66.19,42.74h7.59a0,0,0,0,1,0,0V57.61a1,1,0,0,1-1,1H67.19a1,1,0,0,1-1-1V42.74A0,0,0,0,1,66.19,42.74Z" transform="translate(139.97 101.36) rotate(180)"/><path class="cls-10" d="M50.63,47.57h9.73a1,1,0,0,1,1,1v10a0,0,0,0,1,0,0H49.63a0,0,0,0,1,0,0v-10A1,1,0,0,1,50.63,47.57Z"/><path class="cls-3" d="M73.78,45.5h5a.5.5,0,0,1,.5.5V58.61a0,0,0,0,1,0,0H73.78a0,0,0,0,1,0,0V45.5A0,0,0,0,1,73.78,45.5Z"/><polyline class="cls-3" points="73.78 45.5 79.3 51.02 73.78 51.02 79.3 56.54 73.78 56.54"/><path class="cls-3" d="M34.45,53.78h6.4a.5.5,0,0,1,.5.5V75.86a0,0,0,0,1,0,0h-6.9a0,0,0,0,1,0,0V53.78A0,0,0,0,1,34.45,53.78Z"/><polyline class="cls-3" points="34.45 53.78 41.35 60.68 34.45 60.68 41.35 67.58 34.45 67.58 41.35 74.48"/><path class="cls-11" d="M39.28,58.61H81.37a0,0,0,0,1,0,0V74.86a1,1,0,0,1-1,1H40.28a1,1,0,0,1-1-1V58.61A0,0,0,0,1,39.28,58.61Z" transform="translate(120.65 134.48) rotate(180)"/><rect class="cls-12" x="39.28" y="66.2" width="42.09" height="9.66" transform="translate(120.65 142.07) rotate(180)"/><path class="cls-3" d="M39.28,58.61H81.37a0,0,0,0,1,0,0V74.86a1,1,0,0,1-1,1H40.28a1,1,0,0,1-1-1V58.61A0,0,0,0,1,39.28,58.61Z" transform="translate(120.65 134.48) rotate(180)"/><path class="cls-3" d="M49.63,63.44H79a5.82,5.82,0,0,1,5.82,5.82v6.6"/><path class="cls-13" d="M29.6,28.25h3.49a1.39,1.39,0,0,1,1.38,1.36l.67,46.25H27.55l.67-46.25A1.38,1.38,0,0,1,29.6,28.25Z"/><polygon class="cls-14" points="28.01 44.12 27.55 75.86 35.14 75.86 34.68 44.12 28.01 44.12"/><path class="cls-13" d="M19.25,28.25h3.49a1.39,1.39,0,0,1,1.38,1.36l.67,46.25H17.2l.67-46.25A1.38,1.38,0,0,1,19.25,28.25Z"/><polygon class="cls-14" points="17.66 44.12 17.2 75.86 24.79 75.86 24.33 44.12 17.66 44.12"/><path class="cls-3" d="M29.6,28.25h3.49a1.39,1.39,0,0,1,1.38,1.36l.67,46.25H27.55l.67-46.25A1.38,1.38,0,0,1,29.6,28.25Z"/><path class="cls-15" d="M71,56.54h4.83a0,0,0,0,1,0,0V74.66a1.2,1.2,0,0,1-1.2,1.2H72.22a1.2,1.2,0,0,1-1.2-1.2V56.54A0,0,0,0,1,71,56.54Z" transform="translate(146.87 132.41) rotate(180)"/><path class="cls-9" d="M68.26,69H78.61a0,0,0,0,1,0,0v4.5a2.4,2.4,0,0,1-2.4,2.4H70.66a2.4,2.4,0,0,1-2.4-2.4V69A0,0,0,0,1,68.26,69Z" transform="translate(146.87 144.83) rotate(180)"/><path class="cls-15" d="M57.91,56.54h4.83a0,0,0,0,1,0,0V74.66a1.2,1.2,0,0,1-1.2,1.2H59.11a1.2,1.2,0,0,1-1.2-1.2V56.54A0,0,0,0,1,57.91,56.54Z" transform="translate(120.65 132.41) rotate(180)"/><path class="cls-9" d="M55.15,69H65.5a0,0,0,0,1,0,0v4.5a2.4,2.4,0,0,1-2.4,2.4H57.55a2.4,2.4,0,0,1-2.4-2.4V69A0,0,0,0,1,55.15,69Z" transform="translate(120.65 144.83) rotate(180)"/><path class="cls-15" d="M44.8,56.54h4.83a0,0,0,0,1,0,0V74.66a1.2,1.2,0,0,1-1.2,1.2H46a1.2,1.2,0,0,1-1.2-1.2V56.54A0,0,0,0,1,44.8,56.54Z" transform="translate(94.43 132.41) rotate(180)"/><path class="cls-9" d="M42,69H52.39a0,0,0,0,1,0,0v4.5a2.4,2.4,0,0,1-2.4,2.4H44.44a2.4,2.4,0,0,1-2.4-2.4V69A0,0,0,0,1,42,69Z" transform="translate(94.43 144.83) rotate(180)"/><line class="cls-3" x1="53.08" y1="47.57" x2="53.08" y2="51.71"/><line class="cls-3" x1="57.91" y1="47.57" x2="57.91" y2="51.71"/><line class="cls-3" x1="53.08" y1="50.33" x2="57.91" y2="50.33"/><line class="cls-3" x1="68.95" y1="45.5" x2="71.02" y2="45.5"/><path class="cls-3" d="M19.25,28.25h3.49a1.39,1.39,0,0,1,1.38,1.36l.67,46.25H17.2l.67-46.25A1.38,1.38,0,0,1,19.25,28.25Z"/><line class="cls-3" x1="17.2" y1="32.39" x2="24.79" y2="32.39"/><line class="cls-3" x1="27.55" y1="32.39" x2="35.14" y2="32.39"/><path class="cls-16" d="M44.8,13.07A2.07,2.07,0,1,1,42.73,11,2.07,2.07,0,0,1,44.8,13.07Z"/><path class="cls-16" d="M26.17,20A2.07,2.07,0,1,1,24.1,17.9,2.07,2.07,0,0,1,26.17,20Z"/><path class="cls-17" d="M39.65,17.53a3.45,3.45,0,0,0-5.82,3.14h-.07a2.07,2.07,0,1,0,2,2.45,3.45,3.45,0,0,0,3.86-5.58Z"/></g></svg>