<svg xmlns="http://www.w3.org/2000/svg" viewBox="0 0 133 133">
  <defs>
    <style>
      .cls-1 {
        fill: #e8f4fa;
      }

      .cls-2 {
        fill: #191816;
        opacity: 0.15;
      }

      .cls-3 {
        fill: #f0f0f0;
      }

      .cls-4, .cls-6 {
        fill: #fff;
      }

      .cls-5, .cls-8, .cls-9 {
        fill: none;
      }

      .cls-5, .cls-6, .cls-7, .cls-8 {
        stroke: #191816;
      }

      .cls-5, .cls-6, .cls-7, .cls-8, .cls-9 {
        stroke-linecap: round;
        stroke-linejoin: round;
      }

      .cls-7 {
        fill: #e04122;
      }

      .cls-8 {
        stroke-width: 4px;
      }

      .cls-9 {
        stroke: #e04122;
        stroke-width: 2px;
      }
    </style>
  </defs>
  <g id="Group_112" data-name="Group 112" transform="translate(-1213 -3463)">
    <g id="_13-_document-approve" data-name="13- document-approve" transform="translate(1202.51 3447)">
      <g id="Background" transform="translate(10.49 16)">
        <g id="New_Symbol_82" data-name="New Symbol 82">
          <circle id="Ellipse_85" data-name="Ellipse 85" class="cls-1" cx="66.5" cy="66.5" r="66.5"/>
        </g>
      </g>
      <g id="Scene" transform="translate(37.472 38.826)">
        <ellipse id="Ellipse_86" data-name="Ellipse 86" class="cls-2" cx="34.131" cy="3.009" rx="34.131" ry="3.009" transform="translate(8.03 89.825)"/>
        <path id="Path_1504" data-name="Path 1504" class="cls-3" d="M39,29.73H79.144L95.188,45.79v58.187a2.012,2.012,0,0,1-2.012,2.012H39a2.012,2.012,0,0,1-2-1.995V31.725a2.012,2.012,0,0,1,2-2Z" transform="translate(-19.909 -29.73)"/>
        <path id="Path_1505" data-name="Path 1505" class="cls-4" d="M95.188,45.79,79.128,29.73H39a2.012,2.012,0,0,0-2,2v8.03a2.012,2.012,0,0,1,2.012-2H79.144v6.018a2.012,2.012,0,0,0,2,2.012Z" transform="translate(-19.909 -29.73)"/>
        <path id="Path_1506" data-name="Path 1506" class="cls-5" d="M39,29.73H79.144L95.188,45.79v58.187a2.012,2.012,0,0,1-2.012,2.012H39a2.012,2.012,0,0,1-2-1.995V31.725a2.012,2.012,0,0,1,2-2Z" transform="translate(-19.909 -29.73)"/>
        <path id="Path_1507" data-name="Path 1507" class="cls-6" d="M78.4,45.79,62.34,29.73V43.778a2.012,2.012,0,0,0,2,2.012Z" transform="translate(-3.122 -29.73)"/>
        <circle id="Ellipse_87" data-name="Ellipse 87" class="cls-7" cx="23.092" cy="23.092" r="23.092" transform="translate(0 37.124)"/>
        <circle id="Ellipse_88" data-name="Ellipse 88" class="cls-4" cx="18.071" cy="18.071" r="18.071" transform="translate(5.021 42.144)"/>
        <path id="Path_1508" data-name="Path 1508" class="cls-3" d="M47.811,60.068A18.055,18.055,0,0,1,65.683,75.629a17.641,17.641,0,0,0,.2-2.427,18.071,18.071,0,0,0-36.143,0,17.638,17.638,0,0,0,.2,2.51A18.071,18.071,0,0,1,47.811,60.068Z" transform="translate(-24.719 -12.902)"/>
        <circle id="Ellipse_89" data-name="Ellipse 89" class="cls-5" cx="18.071" cy="18.071" r="18.071" transform="translate(5.021 42.144)"/>
        <line id="Line_450" data-name="Line 450" class="cls-5" x2="22.078" transform="translate(27.847 10.025)"/>
        <line id="Line_451" data-name="Line 451" class="cls-5" x2="22.078" transform="translate(27.847 17.057)"/>
        <line id="Line_452" data-name="Line 452" class="cls-5" x2="37.14" transform="translate(27.847 24.09)"/>
        <line id="Line_453" data-name="Line 453" class="cls-5" x2="37.14" transform="translate(27.847 31.105)"/>
        <line id="Line_454" data-name="Line 454" class="cls-5" x2="21.08" transform="translate(43.907 38.138)"/>
        <line id="Line_455" data-name="Line 455" class="cls-5" x2="15.062" transform="translate(49.925 45.17)"/>
        <line id="Line_456" data-name="Line 456" class="cls-5" x2="12.053" transform="translate(52.934 52.186)"/>
        <line id="Line_457" data-name="Line 457" class="cls-5" x2="11.039" transform="translate(53.948 59.218)"/>
        <line id="Line_458" data-name="Line 458" class="cls-5" x2="12.053" transform="translate(52.934 66.234)"/>
      </g>
    </g>
    <g id="Group_111" data-name="Group 111" transform="translate(19 -89.5)">
      <line id="Line_459" data-name="Line 459" class="cls-8" x2="19.849" y2="11.566" transform="matrix(0.966, 0.259, -0.259, 0.966, 1235.496, 3627.5)"/>
      <line id="Line_460" data-name="Line 460" class="cls-8" x1="11.602" y2="19.848" transform="matrix(0.966, 0.259, -0.259, 0.966, 1240.637, 3624.5)"/>
      <line id="Line_461" data-name="Line 461" class="cls-9" x2="19.849" y2="11.566" transform="matrix(0.966, 0.259, -0.259, 0.966, 1235.496, 3627.5)"/>
      <line id="Line_462" data-name="Line 462" class="cls-9" x1="11.602" y2="19.848" transform="matrix(0.966, 0.259, -0.259, 0.966, 1240.637, 3624.5)"/>
    </g>
  </g>
</svg>
