<svg xmlns="http://www.w3.org/2000/svg" viewBox="-4453 -3216 217.395 217.395">
  <defs>
    <style>
      .cls-1 {
        fill: #fda500;
      }
    </style>
  </defs>
  <path id="user_2_" data-name="user (2)" class="cls-1" d="M217.395,108.7A108.7,108.7,0,1,0,35.281,188.77l-.1.091,3.526,2.972c.229.194.478.352.708.542,1.874,1.553,3.814,3.028,5.791,4.455.64.462,1.281.925,1.933,1.376q3.166,2.182,6.49,4.142c.482.285.968.561,1.455.838,2.423,1.379,4.9,2.68,7.431,3.874.186.087.376.166.561.253a107.718,107.718,0,0,0,26.289,8.32l.727.13c2.862.494,5.755.889,8.684,1.154.356.032.711.051,1.071.083,2.917.241,5.866.4,8.854.4,2.961,0,5.882-.154,8.783-.387.368-.032.735-.051,1.1-.083q4.358-.4,8.609-1.134c.245-.044.494-.087.739-.134a107.712,107.712,0,0,0,25.917-8.123c.3-.138.6-.269.905-.411q3.658-1.719,7.158-3.7.872-.492,1.735-1c2.126-1.253,4.217-2.561,6.249-3.953.731-.5,1.447-1.024,2.17-1.545,1.735-1.249,3.439-2.538,5.095-3.885.368-.3.763-.553,1.123-.858l3.617-3.02-.107-.091A108.416,108.416,0,0,0,217.395,108.7Zm-209.489,0A100.792,100.792,0,1,1,175.54,184.046a29.625,29.625,0,0,0-3.53-2.123l-33.467-16.731a8.761,8.761,0,0,1-4.87-7.878V145.627c.775-.957,1.593-2.04,2.439-3.229a80.548,80.548,0,0,0,10.34-20.249,14.345,14.345,0,0,0,8.241-13V95.136a14.381,14.381,0,0,0-3.506-9.364V67.325c.206-2.051.933-13.629-7.443-23.178-7.285-8.316-19.075-12.526-35.048-12.526s-27.763,4.21-35.048,12.522C65.274,53.692,66,65.27,66.207,67.321V85.768A14.4,14.4,0,0,0,62.7,95.132v14.012a14.378,14.378,0,0,0,5.3,11.15,74.27,74.27,0,0,0,12.225,25.253v11.439a8.817,8.817,0,0,1-4.593,7.739L44.376,181.773a28.567,28.567,0,0,0-2.972,1.881A100.55,100.55,0,0,1,7.905,108.7Zm159.919,81.551c-1.383,1-2.791,1.976-4.217,2.905-.656.427-1.308.854-1.976,1.269-1.866,1.154-3.763,2.253-5.7,3.281-.427.225-.858.439-1.289.66a100.72,100.72,0,0,1-13.787,5.834c-.166.055-.332.115-.5.17q-3.717,1.233-7.526,2.182c-.008,0-.016,0-.024,0-2.561.632-5.154,1.158-7.763,1.589-.071.012-.142.028-.213.04-2.455.4-4.929.688-7.411.905-.439.039-.877.067-1.32.1-2.455.186-4.921.3-7.4.3-2.506,0-5-.122-7.49-.308-.431-.032-.862-.059-1.289-.1-2.506-.221-5-.518-7.47-.921l-.332-.059a100.418,100.418,0,0,1-15.376-3.838l-.466-.158q-3.729-1.269-7.36-2.818l-.051-.024c-2.285-.984-4.526-2.075-6.739-3.225-.289-.15-.581-.292-.866-.447-2.02-1.079-4-2.245-5.945-3.463q-.866-.545-1.719-1.1c-1.794-1.174-3.565-2.4-5.289-3.688-.178-.134-.348-.277-.526-.411l.379-.213,31.253-17.048a16.715,16.715,0,0,0,8.716-14.68l0-14.237-.909-1.1a66,66,0,0,1-11.862-24.57l-.36-1.565-1.348-.874a6.55,6.55,0,0,1-3.04-5.5V95.128a6.455,6.455,0,0,1,2.2-4.834l1.3-1.178V67.1l-.036-.518a23.807,23.807,0,0,1,5.518-17.233c5.715-6.514,15.51-9.822,29.1-9.822,13.542,0,23.3,3.281,29.036,9.747,6.688,7.553,5.593,17.237,5.585,17.316l-.036,22.534,1.3,1.178a6.463,6.463,0,0,1,2.2,4.834v14.012a6.6,6.6,0,0,1-4.668,6.225l-1.964.6-.632,1.957a73.125,73.125,0,0,1-9.866,19.89c-1.036,1.462-2.044,2.759-2.909,3.751l-.98,1.119v14.621a16.619,16.619,0,0,0,9.241,14.949l33.467,16.731c.213.107.423.217.632.328C168.686,189.643,168.252,189.94,167.825,190.248Z" transform="translate(-4453 -3216)"/>
</svg>
