<svg id="Group_552" data-name="Group 552" xmlns="http://www.w3.org/2000/svg" xmlns:xlink="http://www.w3.org/1999/xlink" viewBox="-21712.5 15416 134 133">
  <defs>
    <style>
      .cls-1, .cls-21, .cls-5, .cls-6, .cls-8 {
        fill: none;
      }

      .cls-2 {
        fill: #e8f4fa;
      }

      .cls-3 {
        fill: #cdf7ad;
      }

      .cls-4 {
        fill: #adc4d9;
      }

      .cls-13, .cls-14, .cls-15, .cls-16, .cls-20, .cls-5, .cls-8 {
        stroke: #191816;
      }

      .cls-13, .cls-14, .cls-15, .cls-16, .cls-20, .cls-21, .cls-5, .cls-6 {
        stroke-linecap: round;
      }

      .cls-13, .cls-14, .cls-15, .cls-16, .cls-20, .cls-21, .cls-5 {
        stroke-linejoin: round;
      }

      .cls-6 {
        stroke: #c0dceb;
      }

      .cls-6, .cls-8 {
        stroke-miterlimit: 10;
      }

      .cls-7 {
        clip-path: url(#clip-path);
      }

      .cls-16, .cls-9 {
        fill: #dea47a;
      }

      .cls-10 {
        fill: #f0c2a1;
      }

      .cls-11, .cls-15 {
        fill: #bf8256;
      }

      .cls-12 {
        fill: #8ca4b8;
      }

      .cls-13 {
        fill: #915e3a;
      }

      .cls-14, .cls-17 {
        fill: #00b8f0;
      }

      .cls-18 {
        fill: #4acfff;
      }

      .cls-19 {
        fill: #191816;
        opacity: 0.15;
      }

      .cls-20 {
        fill: #fff;
      }

      .cls-21 {
        stroke: #e04122;
        stroke-width: 2px;
      }
    </style>
    <clipPath id="clip-path">
      <circle id="Ellipse_108" data-name="Ellipse 108" class="cls-1" cx="61.149" cy="61.149" r="61.149" transform="translate(0 6)"/>
    </clipPath>
  </defs>
  <circle id="Ellipse_107" data-name="Ellipse 107" class="cls-2" cx="66.5" cy="66.5" r="66.5" transform="translate(-21711.65 15416)"/>
  <path id="Path_1256" data-name="Path 1256" class="cls-3" d="M13.55,72.5A61.149,61.149,0,0,0,30.626,94.667H107.9A61.15,61.15,0,0,0,124.98,72.5Z" transform="translate(-21714.758 15436.873)"/>
  <path id="Path_1257" data-name="Path 1257" class="cls-4" d="M63.366,100.759A60.859,60.859,0,0,0,102.013,87H24.72A60.844,60.844,0,0,0,63.366,100.759Z" transform="translate(-21708.852 15444.54)"/>
  <line id="Line_379" data-name="Line 379" class="cls-5" x2="119.241" transform="translate(-21705.121 15509.374)"/>
  <line id="Line_380" data-name="Line 380" class="cls-5" x2="3.822" transform="translate(-21712 15509.374)"/>
  <line id="Line_381" data-name="Line 381" class="cls-5" x2="3.822" transform="translate(-21582.822 15509.374)"/>
  <line id="Line_382" data-name="Line 382" class="cls-6" x2="10.946" transform="translate(-21649.842 15537.655)"/>
  <line id="Line_383" data-name="Line 383" class="cls-6" x2="2.736" transform="translate(-21661.217 15530.655)"/>
  <line id="Line_384" data-name="Line 384" class="cls-6" x2="0.917" transform="translate(-21665.787 15530.655)"/>
  <g id="Group_551" data-name="Group 551" class="cls-7" transform="translate(-21711.65 15416)">
    <line id="Line_385" data-name="Line 385" class="cls-8" x2="83.316" transform="translate(23.721 112.54)"/>
  </g>
  <path id="Path_1258" data-name="Path 1258" class="cls-9" d="M0,0H14.447V7.292a1.529,1.529,0,0,1-1.529,1.529H0Z" transform="translate(-21663.926 15460.213) rotate(180)"/>
  <path id="Path_1259" data-name="Path 1259" class="cls-10" d="M35.249,32.6H48.167v2.6H35.249a1.529,1.529,0,0,0-1.529,1.529v-2.6A1.529,1.529,0,0,1,35.249,32.6Z" transform="translate(-21712.092 15418.777)"/>
  <rect id="Rectangle_787" data-name="Rectangle 787" class="cls-11" width="14.447" height="48.155" transform="translate(-21678.373 15464.219)"/>
  <rect id="Rectangle_788" data-name="Rectangle 788" class="cls-9" width="14.447" height="40.099" transform="translate(-21678.373 15472.274)"/>
  <path id="Path_1260" data-name="Path 1260" class="cls-4" d="M98.182,23.68H40.4L34.77,37.316h69.022Z" transform="translate(-21711.537 15414.061)"/>
  <path id="Path_1261" data-name="Path 1261" class="cls-12" d="M37.415,28.4,34.77,34.821h69.022L101.148,28.4Z" transform="translate(-21711.537 15416.557)"/>
  <path id="Path_1262" data-name="Path 1262" class="cls-5" d="M98.182,23.68H40.4L34.77,37.316h69.022Z" transform="translate(-21711.537 15414.061)"/>
  <path id="Path_1263" data-name="Path 1263" class="cls-9" d="M86.51,47.5H43.17V38.668L62.86,21.852a3.057,3.057,0,0,1,3.959,0L86.51,38.668Z" transform="translate(-21707.096 15412.709)"/>
  <path id="Path_1264" data-name="Path 1264" class="cls-10" d="M66.82,21.882a3.057,3.057,0,0,0-3.959,0L43.17,38.7v3.057L62.86,24.939a3.057,3.057,0,0,1,3.959,0L86.51,41.755V38.7Z" transform="translate(-21707.096 15412.726)"/>
  <path id="Path_1265" data-name="Path 1265" class="cls-5" d="M86.51,47.5H43.17V38.668L62.86,21.852a3.057,3.057,0,0,1,3.959,0L86.51,38.668Z" transform="translate(-21707.096 15412.709)"/>
  <rect id="Rectangle_789" data-name="Rectangle 789" class="cls-10" width="43.34" height="19.262" transform="translate(-21663.926 15493.111)"/>
  <rect id="Rectangle_790" data-name="Rectangle 790" class="cls-5" width="43.34" height="19.262" transform="translate(-21663.926 15493.111)"/>
  <rect id="Rectangle_791" data-name="Rectangle 791" class="cls-9" width="43.34" height="2.736" transform="translate(-21663.926 15497.117)"/>
  <rect id="Rectangle_792" data-name="Rectangle 792" class="cls-11" width="43.34" height="32.898" transform="translate(-21663.926 15460.213)"/>
  <rect id="Rectangle_793" data-name="Rectangle 793" class="cls-11" width="14.447" height="2.736" transform="translate(-21678.373 15497.117)"/>
  <path id="Path_1266" data-name="Path 1266" class="cls-9" d="M86.51,67.117H43.17V46.25H86.51Z" transform="translate(-21707.096 15425.994)"/>
  <rect id="Rectangle_794" data-name="Rectangle 794" class="cls-5" width="43.34" height="32.898" transform="translate(-21663.926 15460.213)"/>
  <rect id="Rectangle_795" data-name="Rectangle 795" class="cls-13" width="43.34" height="4.021" transform="translate(-21663.926 15493.111)"/>
  <path id="Path_1267" data-name="Path 1267" class="cls-10" d="M60.671,26.82a9.646,9.646,0,0,0-9.631,9.631v8.041H70.3V36.451a9.646,9.646,0,0,0-9.631-9.631Z" transform="translate(-21702.936 15415.721)"/>
  <path id="Path_1268" data-name="Path 1268" class="cls-9" d="M60.671,26.82a9.646,9.646,0,0,0-9.631,9.631v4.143a9.631,9.631,0,0,1,19.262,0V36.451a9.646,9.646,0,0,0-9.631-9.631Z" transform="translate(-21702.936 15415.721)"/>
  <path id="Path_1269" data-name="Path 1269" class="cls-5" d="M60.671,26.82a9.646,9.646,0,0,0-9.631,9.631v8.041H70.3V36.451a9.646,9.646,0,0,0-9.631-9.631Z" transform="translate(-21702.936 15415.721)"/>
  <path id="Path_1270" data-name="Path 1270" class="cls-5" d="M35.249,32.6H48.167v61H33.72V34.129A1.529,1.529,0,0,1,35.249,32.6Z" transform="translate(-21712.092 15418.777)"/>
  <rect id="Rectangle_796" data-name="Rectangle 796" class="cls-13" width="14.447" height="4.021" transform="translate(-21678.373 15493.111)"/>
  <rect id="Rectangle_797" data-name="Rectangle 797" class="cls-13" width="43.34" height="4.021" transform="translate(-21663.926 15460.213)"/>
  <rect id="Rectangle_798" data-name="Rectangle 798" class="cls-13" width="14.447" height="4.021" transform="translate(-21678.373 15460.213)"/>
  <path id="Path_1271" data-name="Path 1271" class="cls-14" d="M38.969,34.7h0a1.529,1.529,0,0,0-1.529,1.529v4.021h3.21V36.308A1.529,1.529,0,0,0,38.969,34.7Z" transform="translate(-21710.125 15419.885)"/>
  <path id="Path_1272" data-name="Path 1272" class="cls-14" d="M47.4,34.7h0a1.529,1.529,0,0,0-1.605,1.529V40.25H49V36.306A1.529,1.529,0,0,0,47.4,34.7Z" transform="translate(-21705.711 15419.887)"/>
  <path id="Path_1273" data-name="Path 1273" class="cls-14" d="M68.369,34.7h0a1.529,1.529,0,0,0-1.529,1.529v4.021h3.21V36.308A1.529,1.529,0,0,0,68.369,34.7Z" transform="translate(-21694.58 15419.885)"/>
  <rect id="Rectangle_799" data-name="Rectangle 799" class="cls-14" width="3.21" height="6.421" transform="translate(-21672.762 15467.429)"/>
  <rect id="Rectangle_800" data-name="Rectangle 800" class="cls-14" width="3.21" height="6.421" transform="translate(-21672.762 15477.06)"/>
  <rect id="Rectangle_801" data-name="Rectangle 801" class="cls-14" width="3.21" height="6.421" transform="translate(-21672.762 15486.69)"/>
  <rect id="Rectangle_802" data-name="Rectangle 802" class="cls-14" width="3.21" height="6.421" transform="translate(-21672.762 15500.343)"/>
  <rect id="Rectangle_803" data-name="Rectangle 803" class="cls-11" width="14.447" height="48.155" transform="translate(-21620.586 15464.219)"/>
  <path id="Path_1274" data-name="Path 1274" class="cls-9" d="M71.52,32.6H84.484a1.529,1.529,0,0,1,1.529,1.529v7.292H71.52Z" transform="translate(-21692.105 15418.777)"/>
  <path id="Path_1275" data-name="Path 1275" class="cls-10" d="M84.484,32.6H71.52v2.6H84.484a1.529,1.529,0,0,1,1.529,1.529v-2.6A1.529,1.529,0,0,0,84.484,32.6Z" transform="translate(-21692.105 15418.777)"/>
  <rect id="Rectangle_804" data-name="Rectangle 804" class="cls-9" width="14.447" height="40.099" transform="translate(-21620.586 15472.274)"/>
  <rect id="Rectangle_805" data-name="Rectangle 805" class="cls-11" width="14.447" height="2.736" transform="translate(-21620.586 15497.117)"/>
  <path id="Path_1276" data-name="Path 1276" class="cls-5" d="M71.52,32.6H84.484a1.529,1.529,0,0,1,1.529,1.529V93.6H71.52Z" transform="translate(-21692.105 15418.777)"/>
  <rect id="Rectangle_806" data-name="Rectangle 806" class="cls-13" width="14.447" height="4.021" transform="translate(-21620.586 15493.111)"/>
  <rect id="Rectangle_807" data-name="Rectangle 807" class="cls-13" width="14.447" height="4.021" transform="translate(-21620.586 15460.213)"/>
  <path id="Path_1277" data-name="Path 1277" class="cls-14" d="M76.769,34.7h0a1.529,1.529,0,0,0-1.529,1.529v4.021h3.21V36.308A1.529,1.529,0,0,0,76.769,34.7Z" transform="translate(-21690.139 15419.885)"/>
  <rect id="Rectangle_808" data-name="Rectangle 808" class="cls-14" width="3.21" height="6.421" transform="translate(-21614.977 15467.429)"/>
  <rect id="Rectangle_809" data-name="Rectangle 809" class="cls-14" width="3.21" height="6.421" transform="translate(-21614.977 15477.06)"/>
  <rect id="Rectangle_810" data-name="Rectangle 810" class="cls-14" width="3.21" height="6.421" transform="translate(-21614.977 15486.69)"/>
  <rect id="Rectangle_811" data-name="Rectangle 811" class="cls-14" width="3.21" height="6.421" transform="translate(-21614.977 15500.343)"/>
  <rect id="Rectangle_812" data-name="Rectangle 812" class="cls-14" width="3.21" height="6.421" transform="translate(-21659.92 15467.429)"/>
  <rect id="Rectangle_813" data-name="Rectangle 813" class="cls-14" width="3.21" height="6.421" transform="translate(-21659.92 15477.06)"/>
  <rect id="Rectangle_814" data-name="Rectangle 814" class="cls-14" width="3.21" height="6.421" transform="translate(-21659.92 15486.69)"/>
  <rect id="Rectangle_815" data-name="Rectangle 815" class="cls-14" width="3.21" height="6.421" transform="translate(-21627.816 15467.429)"/>
  <rect id="Rectangle_816" data-name="Rectangle 816" class="cls-14" width="3.21" height="6.421" transform="translate(-21627.816 15477.06)"/>
  <rect id="Rectangle_817" data-name="Rectangle 817" class="cls-14" width="3.21" height="6.421" transform="translate(-21639.848 15469.034)"/>
  <rect id="Rectangle_818" data-name="Rectangle 818" class="cls-14" width="3.21" height="6.421" transform="translate(-21639.848 15478.665)"/>
  <rect id="Rectangle_819" data-name="Rectangle 819" class="cls-14" width="3.21" height="6.421" transform="translate(-21647.875 15469.034)"/>
  <rect id="Rectangle_820" data-name="Rectangle 820" class="cls-14" width="3.21" height="6.421" transform="translate(-21647.875 15478.665)"/>
  <rect id="Rectangle_821" data-name="Rectangle 821" class="cls-14" width="3.21" height="6.421" transform="translate(-21627.816 15486.69)"/>
  <rect id="Rectangle_822" data-name="Rectangle 822" class="cls-15" width="5.626" height="4.816" transform="translate(-21671.156 15432.91)"/>
  <path id="Path_1278" data-name="Path 1278" class="cls-16" d="M44.347,21.62H38.721l-.55-.795a1.529,1.529,0,0,1,1.254-2.385h4.189A1.529,1.529,0,0,1,44.9,20.825Z" transform="translate(-21709.879 15411.29)"/>
  <rect id="Rectangle_823" data-name="Rectangle 823" class="cls-15" width="5.626" height="4.816" transform="translate(-21618.98 15432.91)"/>
  <path id="Path_1279" data-name="Path 1279" class="cls-16" d="M78.483,21.625h-5.61l-.581-.764a1.529,1.529,0,0,1,1.223-2.431h4.2a1.529,1.529,0,0,1,1.315,2.293Z" transform="translate(-21691.854 15411.285)"/>
  <line id="Line_386" data-name="Line 386" class="cls-5" y2="20.867" transform="translate(-21651.895 15464.219)"/>
  <line id="Line_387" data-name="Line 387" class="cls-5" y2="20.867" transform="translate(-21632.633 15464.219)"/>
  <rect id="Rectangle_824" data-name="Rectangle 824" class="cls-13" width="17.657" height="19.262" transform="translate(-21651.084 15493.111)"/>
  <rect id="Rectangle_825" data-name="Rectangle 825" class="cls-9" width="3.21" height="15.257" transform="translate(-21651.084 15497.117)"/>
  <rect id="Rectangle_826" data-name="Rectangle 826" class="cls-11" width="3.21" height="2.736" transform="translate(-21651.084 15497.117)"/>
  <rect id="Rectangle_827" data-name="Rectangle 827" class="cls-5" width="3.21" height="15.257" transform="translate(-21651.084 15497.117)"/>
  <rect id="Rectangle_828" data-name="Rectangle 828" class="cls-9" width="3.21" height="15.257" transform="translate(-21636.639 15497.117)"/>
  <rect id="Rectangle_829" data-name="Rectangle 829" class="cls-11" width="3.21" height="2.736" transform="translate(-21636.639 15497.117)"/>
  <rect id="Rectangle_830" data-name="Rectangle 830" class="cls-5" width="3.21" height="15.257" transform="translate(-21636.639 15497.117)"/>
  <rect id="Rectangle_831" data-name="Rectangle 831" class="cls-17" width="11.236" height="15.257" transform="translate(-21647.875 15497.117)"/>
  <path id="Path_1280" data-name="Path 1280" class="cls-18" d="M63.3,62.52H53.67V77.777h3.394Z" transform="translate(-21701.545 15434.597)"/>
  <rect id="Rectangle_832" data-name="Rectangle 832" class="cls-5" width="5.61" height="15.257" transform="translate(-21642.264 15497.117)"/>
  <line id="Line_388" data-name="Line 388" class="cls-5" x1="15.975" transform="translate(-21679.9 15493.111)"/>
  <line id="Line_389" data-name="Line 389" class="cls-5" x1="15.975" transform="translate(-21679.9 15460.213)"/>
  <line id="Line_390" data-name="Line 390" class="cls-5" x1="15.975" transform="translate(-21620.586 15493.111)"/>
  <line id="Line_391" data-name="Line 391" class="cls-5" x1="15.975" transform="translate(-21620.586 15460.213)"/>
  <rect id="Rectangle_833" data-name="Rectangle 833" class="cls-5" width="5.626" height="15.257" transform="translate(-21647.875 15497.117)"/>
  <path id="Path_1281" data-name="Path 1281" class="cls-19" d="M63.967,85.21c0,1.529-8.714,2.66-19.491,2.66S25,86.678,25,85.21s8.729-2.66,19.491-2.66S63.967,83.742,63.967,85.21Z" transform="translate(-21716.703 15445.188)"/>
  <path id="Path_1282" data-name="Path 1282" class="cls-20" d="M50.842,93.083H46.5V65.642a2.431,2.431,0,0,1,4.342,0Z" transform="translate(-21699.336 15435.541)"/>
  <rect id="Rectangle_834" data-name="Rectangle 834" class="cls-17" width="25.958" height="25.698" transform="translate(-21678.793 15502.926)"/>
  <path id="Path_1291" data-name="Path 1291" class="cls-18" d="M0,0H25.958V4.861H0Z" transform="translate(-21678.793 15502.926)"/>
  <rect id="Rectangle_836" data-name="Rectangle 836" class="cls-5" width="25.958" height="25.698" transform="translate(-21678.793 15502.926)"/>
  <path id="Path_1283" data-name="Path 1283" class="cls-20" d="M47.441,67.251H50.7a3.279,3.279,0,1,0-3.256,0Z" transform="translate(-21699.711 15433.841)"/>
  <path id="Path_1284" data-name="Path 1284" class="cls-20" d="M31.036,93.078H26.71V65.637a2.431,2.431,0,0,1,4.326,0Z" transform="translate(-21709.799 15435.546)"/>
  <path id="Path_1285" data-name="Path 1285" class="cls-20" d="M27.667,67.251h3.21a3.3,3.3,0,1,0-3.21,0Z" transform="translate(-21710.189 15433.841)"/>
  <path id="Path_1290" data-name="Path 1290" class="cls-1" d="M40.506,68.939a.535.535,0,0,0-.657,0,13.407,13.407,0,0,1-6.115,2.553.566.566,0,0,0-.474.55v4.892a10.869,10.869,0,0,0,6.772,10.074.489.489,0,0,0,.413,0,10.869,10.869,0,0,0,6.772-10.074V72.042a.566.566,0,0,0-.474-.55A13.407,13.407,0,0,1,40.506,68.939Z" transform="translate(-21712.336 15437.931)"/>
  <line id="Line_392" data-name="Line 392" class="cls-21" x2="15.637" y2="9.113" transform="matrix(0.966, 0.259, -0.259, 0.966, -21671.625, 15509.841)"/>
  <line id="Line_393" data-name="Line 393" class="cls-21" x1="9.14" y2="15.638" transform="matrix(0.966, 0.259, -0.259, 0.966, -21667.652, 15507.527)"/>
</svg>
