<svg id="Multicolor" xmlns="http://www.w3.org/2000/svg" viewBox="0 0 100 112"><defs><style>.cls-1{fill:#e8f4fa;}.cls-2{fill:#ffcebf;}.cls-3{fill:#ffdcd1;}.cls-4,.cls-7{fill:none;}.cls-4,.cls-7,.cls-8{stroke:#191816;stroke-linejoin:round;}.cls-4,.cls-8{stroke-linecap:round;}.cls-5{fill:#009fd9;}.cls-6{fill:#00b8f0;}.cls-8{fill:#fff;}.Graphic-Style-13{fill:#191816;opacity:0.15;}</style></defs><title>42- thumb-down-fail</title><g id="New_Symbol_53-14" data-name="New Symbol 53"><circle class="cls-1" cx="50.13" cy="56" r="40"/></g><path class="cls-2" d="M58.07,39.17c-3.82,0-5.62-2.64-12.45-2.64H34.05a2.65,2.65,0,1,0,0,5.29H32.72a2.65,2.65,0,0,0,0,5.29H31.4a2.65,2.65,0,0,0,0,5.29H30.08a2.65,2.65,0,1,0,0,5.29H43.63c-.49,4.94-1.14,15.54,3,15.54a3,3,0,0,0,3-3v-1c0-7.27,3.16-14.88,9.26-14.88V39.17Z"/><path class="cls-3" d="M58.84,39.17h-.77c-3.82,0-5.62-2.64-12.45-2.64H34.05a2.64,2.64,0,0,0-1.74,4.63,2.63,2.63,0,0,1,1.74-.66H45.62c6.83,0,8.63,2.64,12.45,2.64h.77Z"/><line class="cls-4" x1="46.28" y1="57.69" x2="43.63" y2="57.69"/><line class="cls-4" x1="34.05" y1="41.82" x2="35.37" y2="41.82"/><line class="cls-4" x1="32.72" y1="47.11" x2="34.05" y2="47.11"/><line class="cls-4" x1="31.4" y1="52.4" x2="32.72" y2="52.4"/><rect class="cls-5" x="62.81" y="36.53" width="9.26" height="20.5" rx="1" ry="1" transform="translate(134.88 93.55) rotate(180)"/><path class="cls-6" d="M70.74,36.53H64.13a1.32,1.32,0,0,0-1.32,1.32v4a1.32,1.32,0,0,1,1.32-1.32h6.61a1.32,1.32,0,0,1,1.33,1.32v-4A1.32,1.32,0,0,0,70.74,36.53Z"/><rect class="cls-7" x="62.81" y="36.53" width="9.26" height="20.5" rx="1" ry="1" transform="translate(134.88 93.55) rotate(180)"/><path class="cls-8" d="M59.84,37.85h3a0,0,0,0,1,0,0V55.7a0,0,0,0,1,0,0h-3a1,1,0,0,1-1-1V38.85A1,1,0,0,1,59.84,37.85Z"/><path class="cls-4" d="M58.07,39.17c-3.82,0-5.62-2.64-12.45-2.64H34.05a2.65,2.65,0,1,0,0,5.29H32.72a2.65,2.65,0,0,0,0,5.29H31.4a2.65,2.65,0,0,0,0,5.29H30.08a2.65,2.65,0,1,0,0,5.29H43.63c-.49,4.94-1.14,15.54,3,15.54a3,3,0,0,0,3-3v-1c0-7.27,3.16-14.88,9.26-14.88V39.17Z"/><path class="Graphic-Style-13" d="M69.42,84.14c0,1.09-8.88,2-19.83,2s-19.84-.89-19.84-2,8.88-2,19.84-2S69.42,83,69.42,84.14Z"/></svg>