<svg xmlns="http://www.w3.org/2000/svg" viewBox="0 0 17 17">
  <defs>
    <style>
      .cls-1 {
        fill: #38839d;
      }
    </style>
  </defs>
  <path id="history" class="cls-1" d="M25,16.484a8.5,8.5,0,0,1-13.835,6.634A.822.822,0,0,1,11.1,21.9l.386-.386a.824.824,0,0,1,1.093-.068,6.307,6.307,0,1,0-.4-9.538l1.74,1.74a.548.548,0,0,1-.388.936H8.548A.548.548,0,0,1,8,14.032V9.05a.548.548,0,0,1,.936-.388l1.692,1.692A8.5,8.5,0,0,1,25,16.484Zm-6.2,2.7.337-.433a.823.823,0,0,0-.144-1.154L17.6,16.512V12.935a.823.823,0,0,0-.823-.823h-.548a.823.823,0,0,0-.823.823v4.649l2.242,1.744A.823.823,0,0,0,18.8,19.184Z" transform="translate(-8 -8)"/>
</svg>
