<svg xmlns="http://www.w3.org/2000/svg" viewBox="-9477 -2693 30 30">
  <defs>
    <style>
      .cls-1 {
        fill: #cc5241;
      }
    </style>
  </defs>
  <path id="times-circle" class="cls-1" d="M23,8A15,15,0,1,0,38,23,15,15,0,0,0,23,8Zm7.355,18.938a.726.726,0,0,1,0,1.028l-2.4,2.389a.726.726,0,0,1-1.028,0L23,26.387l-3.937,3.968a.726.726,0,0,1-1.028,0l-2.389-2.4a.726.726,0,0,1,0-1.028L19.613,23l-3.968-3.937a.726.726,0,0,1,0-1.028l2.4-2.4a.726.726,0,0,1,1.028,0L23,19.613l3.938-3.968a.726.726,0,0,1,1.028,0l2.4,2.4a.726.726,0,0,1,0,1.028L26.387,23Z" transform="translate(-9485 -2701)"/>
</svg>
